<svg width="30" height="30" viewBox="0 0 30 30" fill="none" xmlns="http://www.w3.org/2000/svg">
    <rect x="0" y="0" width="30" height="30" rx="5" ry="5" fill="#f9f0eb"/>
    <path fill="#8B5D42" d="M20.4 16.3334C20.957 16.3334 21.4911 16.544 21.8849 16.9191C22.2788 17.2942 22.5 17.8029 22.5 18.3333V18.81C22.5 21.1947 19.553 23 15.5 23C11.447 23 8.5 21.2887 8.5 18.81V18.3333C8.5 17.8029 8.72125 17.2942 9.11507 16.9191C9.5089 16.544 10.043 16.3334 10.6 16.3334H20.4ZM15.5 7C16.0516 7 16.5978 7.10346 17.1073 7.30448C17.6168 7.5055 18.0799 7.80014 18.4699 8.17157C18.8599 8.54301 19.1692 8.98396 19.3803 9.46927C19.5914 9.95458 19.7 10.4747 19.7 11C19.7 11.5253 19.5914 12.0454 19.3803 12.5307C19.1692 13.016 18.8599 13.457 18.4699 13.8284C18.0799 14.1999 17.6168 14.4945 17.1073 14.6955C16.5978 14.8965 16.0516 15 15.5 15C14.3861 15 13.3178 14.5786 12.5302 13.8284C11.7425 13.0784 11.3 12.0609 11.3 11C11.3 9.93913 11.7425 8.92173 12.5302 8.17157C13.3178 7.42143 14.3861 7 15.5 7Z" />
</svg>