<svg width="40" height="40" fill="none" xmlns="http://www.w3.org/2000/svg">
    <path d="M.006 13.002c0-7.18 5.82-13 13-13h14c7.18 0 13 5.82 13 13v14c0 7.18-5.82 13-13 13h-14c-7.18 0-13-5.82-13-13v-14Z" fill="#0D264A"/>
    <path d="m20.077 18.6-8.677-7c1.723-.492 3.631-.43 5.354-.37 1.538.063 4.062.186 4.862-1.411 1.784.614 4 .92 5.538-.184 1.17-.86 1.97-2.641 1.477-4.115-.554-1.72-2.646-1.535-4.062-1.105-1.661.553-3.323 1.78-4.184 3.316-.923-1.166-1.293-2.763-2.646-3.561-1.416-.8-3.693-.8-4.862.43-1.23 1.35-.923 3.438.554 4.483 1.662 1.228 4 1.044 5.97.86.553-.062.738-.798.06-.738-1.476.185-3.138.308-4.492-.245-1.907-.8-2.892-3.747-.369-4.545 3.323-1.044 3.693 2.703 5.539 4.3.246.246.861-.062.861-.37.492-1.473 1.846-2.701 3.262-3.315 1.23-.554 3.077-.86 3.446.798.246.983-.185 2.21-.862 3.009-1.292 1.413-3.63.798-5.169.184-.123-.061-.43 0-.615.124-.123.06-.308.123-.308.245-.43 1.904-4.123 1.167-5.477 1.167-1.477 0-3.015.123-4.37.552L9 9.695v2.458c-1.415.982-2.154 2.518-2.4 4.237-.307 2.088.554 4.299 2.4 5.159v12.835l5.908-4.668v-7.308c.246.062.43.185.677.246.738.307 1.661.798 2.215 1.412.739.86.616 1.904-.615 2.21-.554.124-.43.615.123.493.861-.246 1.846-.677 1.908-1.72.123-1.167-1.047-1.904-1.908-2.395-.739-.43-1.539-.737-2.339-.983v-2.15l-2.646-2.15v3.993c-.369.062-.615.123-.923.123v-5.773l8.677 6.94 8.677-6.94v13.203l-.8-.613v-10.87l-2.708 2.149v10.133l5.908 4.668V9.694L20.077 18.6ZM8.262 19.95c-1.539-1.903-.985-5.096.738-6.938v7.615c-.246-.184-.492-.43-.738-.676Zm4 1.967v6.325l-.8.615V22.04c.246-.062.492-.062.8-.123Z" fill="#E2B59C"/>
    <path d="M16.723 14.718h6.46l3.324-2.64H13.46l3.262 2.64Z" fill="#E2B59C"/>
</svg>
