<svg width="180" height="128" viewBox="0 0 180 128" fill="none" xmlns="http://www.w3.org/2000/svg">
    <path d="M89.505 3.503a3.402 3.402 0 0 1 4.972 0L98.495 7.8a3.403 3.403 0 0 0 4.176.63l5.104-2.92a3.403 3.403 0 0 1 4.751 1.466l2.573 5.291a3.405 3.405 0 0 0 3.806 1.834l5.738-1.285a3.405 3.405 0 0 1 4.108 2.803l.9 5.816a3.407 3.407 0 0 0 3.096 2.875l5.862.464a3.407 3.407 0 0 1 3.1 3.89l-.851 5.824a3.407 3.407 0 0 0 2.111 3.66l5.464 2.173a3.409 3.409 0 0 1 1.817 4.633l-2.529 5.312a3.41 3.41 0 0 0 .94 4.121l4.581 3.689a3.41 3.41 0 0 1 .372 4.962l-3.981 4.331a3.41 3.41 0 0 0-.316 4.215l3.292 4.876a3.41 3.41 0 0 1-1.107 4.852l-5.079 2.964a3.408 3.408 0 0 0-1.543 3.934l1.709 5.631a3.408 3.408 0 0 1-2.486 4.31l-5.726 1.333a3.409 3.409 0 0 0-2.634 3.305l-.025 5.885a3.406 3.406 0 0 1-3.644 3.385l-5.866-.415a3.405 3.405 0 0 0-3.489 2.38l-1.757 5.616a3.404 3.404 0 0 1-4.48 2.16L111 119.673a3.404 3.404 0 0 0-4.036 1.246l-3.332 4.848a3.403 3.403 0 0 1-4.917.742l-4.613-3.649a3.4 3.4 0 0 0-4.223 0l-4.612 3.649a3.403 3.403 0 0 1-4.917-.742l-3.333-4.848a3.403 3.403 0 0 0-4.035-1.246l-5.483 2.127a3.404 3.404 0 0 1-4.48-2.16l-1.756-5.616a3.404 3.404 0 0 0-3.49-2.38l-5.865.415a3.407 3.407 0 0 1-3.645-3.385l-.024-5.885a3.408 3.408 0 0 0-2.634-3.305l-5.726-1.333a3.408 3.408 0 0 1-2.486-4.31l1.709-5.63a3.409 3.409 0 0 0-1.543-3.935l-5.08-2.964a3.41 3.41 0 0 1-1.106-4.852l3.292-4.876a3.41 3.41 0 0 0-.316-4.215l-3.981-4.33a3.41 3.41 0 0 1 .372-4.963l4.581-3.689a3.41 3.41 0 0 0 .94-4.12l-2.529-5.313a3.409 3.409 0 0 1 1.817-4.633l5.464-2.173a3.408 3.408 0 0 0 2.111-3.66l-.851-5.823a3.407 3.407 0 0 1 3.1-3.89l5.861-.465a3.406 3.406 0 0 0 3.096-2.875l.901-5.816a3.405 3.405 0 0 1 4.108-2.803l5.738 1.285a3.404 3.404 0 0 0 3.805-1.834l2.573-5.29a3.404 3.404 0 0 1 4.752-1.468L81.31 8.43a3.402 3.402 0 0 0 4.176-.63l4.018-4.297Z" fill="#E2B59C"/>
    <path fill-rule="evenodd" clip-rule="evenodd" d="m96.008 10.129-4.017-4.297-4.017 4.297a6.806 6.806 0 0 1-8.353 1.26l-5.104-2.921-2.574 5.29a6.808 6.808 0 0 1-7.61 3.669l-5.737-1.286-.901 5.816a6.812 6.812 0 0 1-6.192 5.75l-5.861.464.851 5.823a6.816 6.816 0 0 1-4.223 7.321l-5.464 2.173 2.529 5.313a6.82 6.82 0 0 1-1.88 8.241l-4.581 3.689 3.98 4.33a6.82 6.82 0 0 1 .632 8.43l-3.292 4.877 5.08 2.964a6.818 6.818 0 0 1 3.086 7.87l-1.71 5.63 5.727 1.334a6.814 6.814 0 0 1 5.266 6.609l.025 5.885 5.865-.415a6.81 6.81 0 0 1 6.98 4.762l1.756 5.616 5.482-2.127a6.806 6.806 0 0 1 8.072 2.492l3.332 4.848 4.613-3.65a6.807 6.807 0 0 1 8.447 0l4.612 3.65 3.332-4.848a6.807 6.807 0 0 1 8.072-2.492l5.482 2.127 1.757-5.616a6.81 6.81 0 0 1 6.978-4.762l5.865.415.026-5.885a6.812 6.812 0 0 1 5.266-6.61l5.726-1.333-1.709-5.63a6.817 6.817 0 0 1 3.086-7.87l5.08-2.964-3.292-4.876a6.82 6.82 0 0 1 .631-8.43l3.981-4.331-4.581-3.689a6.82 6.82 0 0 1-1.88-8.241l2.529-5.313-5.465-2.173a6.815 6.815 0 0 1-4.222-7.321l.851-5.823-5.861-.464a6.813 6.813 0 0 1-6.192-5.75l-.901-5.816-5.738 1.286a6.807 6.807 0 0 1-7.609-3.668l-2.574-5.291-5.104 2.92a6.806 6.806 0 0 1-8.353-1.26Zm-1.531-6.626a3.402 3.402 0 0 0-4.972 0L85.487 7.8a3.402 3.402 0 0 1-4.176.63l-5.104-2.92a3.404 3.404 0 0 0-4.751 1.466l-2.574 5.291a3.404 3.404 0 0 1-3.805 1.834l-5.738-1.285a3.405 3.405 0 0 0-4.108 2.803l-.9 5.816a3.406 3.406 0 0 1-3.097 2.875l-5.861.464a3.407 3.407 0 0 0-3.1 3.89l.851 5.824a3.408 3.408 0 0 1-2.111 3.66l-5.464 2.173a3.409 3.409 0 0 0-1.817 4.633l2.529 5.312a3.41 3.41 0 0 1-.94 4.121l-4.581 3.689a3.41 3.41 0 0 0-.372 4.962l3.981 4.331a3.41 3.41 0 0 1 .316 4.215l-3.292 4.876a3.41 3.41 0 0 0 1.106 4.852l5.08 2.964a3.409 3.409 0 0 1 1.543 3.934l-1.71 5.631a3.408 3.408 0 0 0 2.487 4.31l5.726 1.333a3.408 3.408 0 0 1 2.634 3.305l.024 5.885a3.407 3.407 0 0 0 3.645 3.385l5.865-.415a3.405 3.405 0 0 1 3.49 2.38l1.757 5.616a3.404 3.404 0 0 0 4.48 2.16l5.482-2.127a3.403 3.403 0 0 1 4.035 1.246l3.333 4.848a3.403 3.403 0 0 0 4.917.742l4.612-3.649a3.4 3.4 0 0 1 4.223 0l4.613 3.649a3.403 3.403 0 0 0 4.917-.742l3.332-4.848a3.404 3.404 0 0 1 4.036-1.246l5.482 2.127a3.404 3.404 0 0 0 4.48-2.16l1.757-5.616a3.405 3.405 0 0 1 3.489-2.38l5.866.415a3.406 3.406 0 0 0 3.644-3.385l.025-5.885a3.409 3.409 0 0 1 2.634-3.305l5.726-1.333a3.408 3.408 0 0 0 2.486-4.31l-1.709-5.63a3.408 3.408 0 0 1 1.543-3.935l5.079-2.964a3.41 3.41 0 0 0 1.107-4.852l-3.292-4.876a3.41 3.41 0 0 1 .316-4.215l3.981-4.33a3.41 3.41 0 0 0-.372-4.963l-4.581-3.689a3.41 3.41 0 0 1-.94-4.12l2.529-5.313a3.409 3.409 0 0 0-1.817-4.633l-5.464-2.173a3.407 3.407 0 0 1-2.111-3.66l.851-5.823a3.407 3.407 0 0 0-3.1-3.89l-5.862-.465a3.407 3.407 0 0 1-3.096-2.875l-.9-5.816a3.405 3.405 0 0 0-4.108-2.803l-5.738 1.285a3.406 3.406 0 0 1-3.806-1.834l-2.573-5.29a3.403 3.403 0 0 0-4.751-1.468l-5.104 2.921a3.403 3.403 0 0 1-4.176-.63l-4.018-4.297Z" fill="#0E264A"/>
    <path d="M11.031 47.986 6.238 34.205c-.28-.802.68-1.484 1.36-.976 5.513 4.109 8.56 5.215 14.387 5.809l1.826-17.098a.864.864 0 0 1 1.1-.736C64.987 32.83 126.138 5.777 159.83 17.994c.361.13.575.488.535.87l-2.154 20.17-1.598 14.972c-.061.569-.657.927-1.203.76-4.354-1.33-12.937-1.881-16.957-2.442-27.242-3.798-62.477 9.474-96.71 9.021l2.37 9.778c-12.492-2.024-30.355-4.5-41.461-11.576A.826.826 0 0 1 2.49 58.3l8.374-9.472a.849.849 0 0 0 .167-.841Z" fill="#F5F8FF"/>
    <path fill-rule="evenodd" clip-rule="evenodd" d="M130.106 13.707c11.163-.64 21.505-.05 30.167 3.091a2.086 2.086 0 0 1 1.361 2.193l-3.752 35.143c-.154 1.44-1.612 2.229-2.854 1.85-2.053-.628-5.178-1.088-8.38-1.463-1.328-.156-2.679-.298-3.947-.43-1.712-.18-3.275-.344-4.434-.506-13.392-1.867-28.815.458-45.342 3.25-1.22.206-2.446.415-3.678.625-14.84 2.525-30.438 5.18-45.879 5.17l2.438 10.058-1.907-.309-2.562-.411c-5.696-.91-12.303-1.967-18.778-3.5-7.462-1.768-14.868-4.195-20.6-7.847-1.11-.707-1.263-2.21-.424-3.159l8.209-9.285-4.712-13.548c-.712-2.046 1.7-3.64 3.335-2.42 2.715 2.023 4.753 3.255 6.785 4.06 1.714.68 3.472 1.078 5.702 1.36l1.688-15.815a2.15 2.15 0 0 1 2.734-1.831c19.71 5.718 44.704 1.935 69.301-1.862l.449-.069c12.085-1.866 24.046-3.712 35.08-4.345ZM20.583 40.162c-2.392-.3-4.396-.737-6.388-1.527-2.03-.806-3.996-1.956-6.323-3.623l4.365 12.551a2.122 2.122 0 0 1-.418 2.102l-8.033 9.087c5.317 3.273 12.21 5.542 19.379 7.24 4.842 1.147 9.758 2.023 14.341 2.777l-18.812-10.91 1.89-17.697Zm21.583 28.357-1.435-5.92c-4.431-.12-7.862-.644-11.279-1.453l12.714 7.373ZM21.43 56.249l3.596-33.686c20.288 5.71 45.697 1.812 69.925-1.927l.378-.059c12.139-1.874 23.996-3.704 34.906-4.33 10.884-.624 20.703-.04 28.823 2.826l-3.668 34.36c-2.279-.64-5.425-1.087-8.428-1.44-1.414-.165-2.79-.31-4.059-.442-1.658-.173-3.132-.328-4.267-.486-13.848-1.93-29.665.481-46.123 3.262-1.21.204-2.422.41-3.639.617-15.415 2.623-31.374 5.338-47.107 5.13-7.81-.104-12.265-1.428-19.206-3.49l-1.131-.336Z" fill="#0E264A"/>
    <path d="M59.19 31.358a1.594 1.594 0 0 1 1.42-1.86l1.873-.203a1.81 1.81 0 0 1 1.962 1.492l3.127 19.294a1.595 1.595 0 0 1-1.419 1.859l-1.874.203a1.81 1.81 0 0 1-1.962-1.492l-3.126-19.293ZM52.004 51.77a1.594 1.594 0 0 1-1.42 1.859l-1.873.203a1.81 1.81 0 0 1-1.962-1.492l-3.127-19.293a1.595 1.595 0 0 1 1.42-1.86l1.873-.203a1.81 1.81 0 0 1 1.962 1.493l3.127 19.293Zm9.199-10.446a1.594 1.594 0 0 1-1.419 1.86l-7.712.836a1.81 1.81 0 0 1-1.962-1.492l-.175-1.08a1.595 1.595 0 0 1 1.419-1.86l7.712-.836a1.81 1.81 0 0 1 1.962 1.492l.175 1.08ZM72.829 51.215c-1.223.133-2.243-1.025-1.927-2.186l5.495-20.23a1.595 1.595 0 0 1 1.384-1.164l2.992-.324a1.813 1.813 0 0 1 1.706.827l11.776 18.355c.676 1.054.06 2.391-1.163 2.524l-1.78.193a1.814 1.814 0 0 1-1.732-.868L79.185 31.15c-.262-.433-.007-.967.488-1.02.494-.054.912.408.796.881l-4.59 18.82c-.16.655-.71 1.13-1.394 1.205l-1.656.18Zm4.053-5.377c-1.163.126-2.163-.922-1.958-2.053l.118-.651c.127-.7.695-1.22 1.415-1.299l9.282-1.007c.715-.078 1.425.3 1.773.942l.327.603c.568 1.048-.062 2.283-1.23 2.41l-9.727 1.055ZM99.74 48.295a1.811 1.811 0 0 1-1.963-1.492L94.651 27.51a1.594 1.594 0 0 1 1.419-1.86l1.852-.2a1.803 1.803 0 0 1 1.411.475l14.35 13.288c.433.4.224 1.093-.348 1.155a.726.726 0 0 1-.788-.6l-2.262-13.954a1.595 1.595 0 0 1 1.419-1.86l1.809-.196a1.81 1.81 0 0 1 1.961 1.492l3.127 19.294a1.594 1.594 0 0 1-1.419 1.859l-1.821.197a1.8 1.8 0 0 1-1.409-.474L99.57 32.84c-.433-.4-.224-1.093.348-1.155a.727.727 0 0 1 .788.599l2.261 13.956a1.594 1.594 0 0 1-1.419 1.859l-1.808.196ZM125.935 45.454a1.81 1.81 0 0 1-1.962-1.493l-3.127-19.293a1.594 1.594 0 0 1 1.419-1.859l8.624-.935c2.466-.268 4.715-.03 6.75.716 2.032.723 3.714 1.868 5.046 3.435 1.333 1.568 2.186 3.505 2.559 5.813.371 2.286.164 4.338-.619 6.157-.787 1.797-2.044 3.272-3.772 4.425-1.731 1.131-3.829 1.83-6.294 2.098l-8.624.936Zm2.595-6.365a1.81 1.81 0 0 0 1.962 1.492l3.11-.337c1.514-.164 2.777-.587 3.789-1.267 1.03-.704 1.762-1.618 2.196-2.74.456-1.125.568-2.399.337-3.822-.234-1.445-.748-2.651-1.542-3.618a6.538 6.538 0 0 0-2.989-2.145c-1.197-.463-2.552-.612-4.066-.448l-3.11.338a1.594 1.594 0 0 0-1.419 1.859l1.732 10.688Z" fill="#0E264A"/>
    <path d="M168.344 115.197c-8.871-4.69-24.519-2.306-33.381-5.585l4.923-13.004c-26.699-3.729-60.432 8.782-93.986 8.354-8.37-.106-13.722-1.078-21.398-3.313a.839.839 0 0 1-.6-.896l1.833-17.177 1.798-16.841a.865.865 0 0 1 1.102-.736c39.27 11.423 99.202-15.264 132.216-3.252.36.131.574.49.533.87l-2.122 19.879c7.009.693 10.281 2.509 15.984 7.638a.844.844 0 0 1-.051 1.292l-9.554 7.46a.85.85 0 0 0-.275.97l4.858 12.905c.326.864-1.062 1.868-1.88 1.436Z" fill="#F5F8FF"/>
    <path fill-rule="evenodd" clip-rule="evenodd" d="M131.722 58.525c10.941-.638 21.08-.063 29.574 3.028a2.087 2.087 0 0 1 1.359 2.191l-1.99 18.629c2.99.38 5.376 1.02 7.65 2.137 2.567 1.261 4.915 3.092 7.79 5.677.977.88.913 2.428-.126 3.24l-9.307 7.267 4.748 12.614c.462 1.226-.357 2.235-.945 2.674-.605.453-1.705.884-2.734.34-4.155-2.196-10.003-2.773-16.182-3.177a519.84 519.84 0 0 0-1.919-.12c-5.428-.337-10.967-.679-15.128-2.219l-1.193-.442 4.806-12.695c-12.74-1.46-27.103.625-42.462 3.134-1.244.203-2.493.409-3.748.616-14.823 2.441-30.445 5.015-46.039 4.816-8.503-.108-13.97-1.102-21.739-3.364a2.101 2.101 0 0 1-1.504-2.244l3.632-34.018a2.15 2.15 0 0 1 2.736-1.83c19.306 5.615 43.792 1.873 67.9-1.883l.436-.068c11.845-1.846 23.569-3.672 34.385-4.303Zm9 39.475-3.479 9.188 16.615-7.518c-1.495-.298-3.252-.555-5.09-.781-1.565-.193-3.202-.365-4.72-.525a228.818 228.818 0 0 1-3.326-.364Zm15.745-.333c-2.048-.575-4.754-.982-7.37-1.304-1.693-.208-3.343-.38-4.842-.537-1.616-.17-3.056-.32-4.183-.477-13.572-1.896-28.871.34-44.806 2.944-1.235.2-2.474.405-3.716.61-14.865 2.447-30.268 4.984-45.625 4.788-8.112-.103-13.314-1.026-20.716-3.163l3.541-33.17c19.887 5.608 44.792 1.75 68.53-1.948l.364-.057c11.898-1.854 23.518-3.665 34.21-4.288 10.662-.622 20.276-.053 28.226 2.761l-3.613 33.841Zm-17.786 11.658c3.258.666 7.108.907 11.174 1.162l1.887.12c6.031.393 12.39.964 17.095 3.407l.022-.008a.595.595 0 0 0 .076-.044l-4.763-12.651a2.125 2.125 0 0 1 .687-2.423l9.15-7.146c-2.642-2.35-4.689-3.894-6.835-4.948-1.941-.953-4.019-1.532-6.779-1.888l-1.638 15.334-20.076 9.085Zm30.349 4.891v-.002.002Z" fill="#0E264A"/>
    <path d="M48.71 97.964a1.81 1.81 0 0 1-1.962-1.492L43.621 77.18a1.595 1.595 0 0 1 1.42-1.86l1.692-.183a1.81 1.81 0 0 1 1.582.658l10.866 13.254c.332.404.106.988-.402 1.043-.507.055-.91-.456-.723-.917l6.123-15.09c.22-.545.724-.92 1.323-.984l1.656-.18a1.81 1.81 0 0 1 1.962 1.488L72.3 93.695a1.594 1.594 0 0 1-1.418 1.864l-1.541.167a1.811 1.811 0 0 1-1.962-1.489l-2.152-13.104a.311.311 0 0 1 .276-.364c.255-.026.458.231.363.462l-4.949 12.136a1.597 1.597 0 0 1-1.322.98l-.445.049a1.808 1.808 0 0 1-1.58-.653l-8.716-10.559c-.203-.246-.066-.601.243-.634a.426.426 0 0 1 .461.35l2.113 13.038a1.594 1.594 0 0 1-1.42 1.859l-1.542.167ZM77.573 94.832c-1.222.133-2.242-1.024-1.927-2.185l5.484-20.228a1.595 1.595 0 0 1 1.384-1.165l2.984-.324a1.812 1.812 0 0 1 1.706.828l11.765 18.357c.676 1.054.06 2.39-1.164 2.522l-1.773.192a1.814 1.814 0 0 1-1.733-.868L83.914 74.767c-.262-.432-.006-.965.488-1.019.494-.053.911.408.796.881l-4.58 18.818a1.594 1.594 0 0 1-1.395 1.206l-1.65.18Zm4.047-5.377c-1.163.127-2.163-.921-1.958-2.05l.118-.653c.127-.7.695-1.22 1.415-1.299l9.265-1.005c.716-.078 1.426.3 1.773.942l.327.603c.568 1.049-.063 2.283-1.23 2.409l-9.71 1.053ZM104.45 91.917a1.81 1.81 0 0 1-1.961-1.492L99.362 71.13a1.594 1.594 0 0 1 1.419-1.859l8.611-.934c2.461-.267 4.709-.028 6.742.717 2.028.724 3.709 1.87 5.039 3.436 1.331 1.568 2.184 3.505 2.557 5.813.371 2.286.165 4.338-.617 6.157-.786 1.797-2.041 3.272-3.766 4.424-1.729 1.132-3.824 1.83-6.286 2.098l-8.611.934Zm2.589-6.364a1.81 1.81 0 0 0 1.962 1.492l3.104-.336c1.512-.165 2.773-.587 3.783-1.267 1.029-.704 1.76-1.618 2.193-2.74.455-1.124.567-2.398.337-3.822-.234-1.445-.749-2.65-1.543-3.618a6.525 6.525 0 0 0-2.984-2.145c-1.196-.463-2.55-.612-4.061-.448l-3.104.336a1.596 1.596 0 0 0-1.42 1.86l1.733 10.688ZM132.429 76.828a1.594 1.594 0 0 1 1.418-1.86l7.537-.817a1.81 1.81 0 0 1 1.961 1.492l.118.725a1.595 1.595 0 0 1-1.419 1.859l-7.535.817a1.81 1.81 0 0 1-1.963-1.492l-.117-.725Zm1.355 5.923a1.811 1.811 0 0 0 1.962 1.492l8.961-.972a1.81 1.81 0 0 1 1.962 1.492l.138.854a1.594 1.594 0 0 1-1.418 1.86l-14.177 1.537a1.811 1.811 0 0 1-1.962-1.492l-3.127-19.293a1.596 1.596 0 0 1 1.42-1.86l13.755-1.492a1.81 1.81 0 0 1 1.962 1.493l.139.854a1.596 1.596 0 0 1-1.42 1.859l-8.539.926a1.596 1.596 0 0 0-1.42 1.86l1.764 10.882Z" fill="#0E264A"/>
</svg>