<svg width="82" height="136" fill="none" xmlns="http://www.w3.org/2000/svg">
    <path d="M0 81.123h41v54.878c-14.036 0-33.386-4.606-41-13.635V81.123Z" fill="#7CBC44"/>
    <path d="M82 81.123H41v54.878c14.036 0 33.386-4.606 41-13.635V81.123Z" fill="#6BA334"/>
    <path d="M41 19.85c22.644 0 41 18.266 41 40.8v21.989l-41 44.609V19.85Z" fill="#B8C444"/>
    <path d="M41 19.85c-22.644 0-41 18.266-41 40.8v21.989l41 44.609V19.85Z" fill="#D0E558"/>
    <path d="M21.424 70.573a3.316 3.316 0 0 0 3.324-3.308 3.316 3.316 0 0 0-3.324-3.308 3.316 3.316 0 0 0-3.324 3.308 3.316 3.316 0 0 0 3.324 3.308ZM60.207 70.573a3.316 3.316 0 0 1-3.324-3.308 3.316 3.316 0 0 1 3.324-3.308 3.316 3.316 0 0 1 3.324 3.308 3.316 3.316 0 0 1-3.324 3.308Z" fill="#000"/>
    <path d="M41.184 95.199c-3.509-5.513-22.531-33.816 0-33.816v33.816Z" fill="#D35F08"/>
    <path d="M41 95.199c3.509-5.513 22.532-33.816 0-33.816v33.816Z" fill="#BA520B"/>
    <path d="M66.856 5.33c-15.239 7.567-20.919 13.399-23.27 28.12V8.27c10.846-4.659 15.665-4.75 23.27-2.94Z" fill="#D28C08"/>
    <path d="M50.049 0c-2.414 4.58-6.44 23.661-6.464 33.816L32.504 23.708C33.847 10.916 37.068 6.131 50.049 0Z" fill="#D35F08"/>
</svg>
