<svg viewBox="0 0 63 91" xmlns="http://www.w3.org/2000/svg">
    <path d="M31.5 0C14.103 0 0 14.103 0 31.5v53.224A6.276 6.276 0 0 0 6.276 91h50.448A6.276 6.276 0 0 0 63 84.724V31.5C63 14.103 48.897 0 31.5 0Zm0 18a7.5 7.5 0 1 0 0-15 7.5 7.5 0 0 0 0 15Z" clip-rule="evenodd" fill="#E2B59C" fill-rule="evenodd"/>
    <path d="M21.108 81.616c-.846.096-1.5-.154-1.961-.75-.417-.61-.6-1.504-.548-2.683.051-1.18.356-2.577.914-4.192.301-.474.57-.891.808-1.25.224-.404.336-.776.336-1.115.135-.379.455-1.125.962-2.24.494-1.16 1.09-2.472 1.789-3.933s1.382-2.894 2.048-4.298a242.748 242.748 0 0 0 1.799-3.644c.487-1.013.734-1.593.74-1.74.193-.006.369-.154.53-.442.147-.334.22-.67.22-1.01.033-.397.167-.776.405-1.134.224-.404.487-.673.788-.808.026-.25.087-.462.183-.635s.14-.355.134-.548a1.038 1.038 0 0 1 .135-.548.881.881 0 0 0 .202-.567c.301-.474.811-1.324 1.53-2.548l2.452-4.413c.93-1.673 1.885-3.426 2.866-5.26.98-1.832 1.897-3.55 2.75-5.153a124.723 124.723 0 0 0 2.058-4.009c.52-1.07.805-1.686.856-1.846.148-.673.529-.952 1.144-.836.263-.27.622-.372 1.077-.308l.164.317c.14.154.365.43.673.827.352.385.557.763.615 1.135.045.327-.003.753-.144 1.279a5.389 5.389 0 0 1-.443 1.51c-.167.435-.503 1.04-1.01 1.816a296.67 296.67 0 0 1-2.192 3.539c-.212.448-.66 1.256-1.347 2.423a164.586 164.586 0 0 0-2.087 3.653 178.551 178.551 0 0 0-1.942 3.394c-.558.936-.847 1.455-.866 1.558-.166.096-.359.272-.577.528-.173.244-.301.645-.385 1.202-.256.462-.68 1.19-1.269 2.183l-1.539 2.769c-.449.807-.676 1.285-.683 1.432-.05.16-.153.311-.307.452a5.445 5.445 0 0 1-.596.462c-.058-.032-.113.032-.164.192l-.01.221c.052.18-.048.596-.298 1.25-.218.596-.619 1.317-1.202 2.163a332.486 332.486 0 0 0-1.99 4.5 299.51 299.51 0 0 0-2.424 5.788c-.796 1.974-1.5 3.753-2.116 5.336-.603 1.629-.962 2.75-1.078 3.366-.115.955-.247 1.599-.394 1.932-.103.32-.305.548-.606.683zM42.292 66.32c.551-1.128.952-2.189 1.202-3.183.25-.993.42-2.182.51-3.567.013-.634-.115-1.423-.384-2.365-.27-.943-.535-1.449-.798-1.52-.513-.096-1.07-.01-1.673.26-.57.211-1.08.721-1.529 1.529-.878 1.173-1.523 2.57-1.933 4.192a62.293 62.293 0 0 0-1 5.163c-.148 1.352.022 2.372.509 3.058.519.628 1.24.689 2.163.183.936-.462 1.914-1.712 2.933-3.75zm-3.366 7.586c-.449.128-.856.147-1.221.058a9.787 9.787 0 0 1-1.154-.472c-.923-.513-1.615-1.067-2.077-1.663-.461-.597-.708-1.206-.74-1.827 0-.34-.054-.616-.163-.827l-.116-.404c-.243-.173-.327-.295-.25-.366.077-.07.119-.179.125-.327.225-.064.234-.285.03-.663-.122-.256-.145-.93-.068-2.02a14.87 14.87 0 0 1 .558-3.143c.122-.423.302-.984.539-1.683.237-.699.52-1.41.846-2.134.372-.738.731-1.35 1.077-1.837.68-1.019 1.305-1.804 1.876-2.355a9.053 9.053 0 0 1 1.99-1.442c.744-.455 1.28-.705 1.606-.75.314-.09.824.08 1.529.51.897.083 1.602.343 2.115.779.545.378 1.003 1.048 1.375 2.01.397 1.05.66 2.31.788 3.778.16 1.41-.183 3.353-1.03 5.827-.538 1.513-1.1 2.692-1.683 3.538s-1.301 1.73-2.154 2.654c-.622.711-1.215 1.269-1.779 1.673-.551.448-1.224.81-2.02 1.086zM25.843 44.155c.551-1.128.952-2.189 1.202-3.183.25-.993.42-2.182.51-3.567.013-.634-.115-1.423-.384-2.365s-.535-1.449-.798-1.52c-.513-.096-1.07-.01-1.673.26-.57.211-1.08.721-1.53 1.529-.877 1.173-1.522 2.57-1.932 4.192a62.305 62.305 0 0 0-1 5.163c-.148 1.352.021 2.372.508 3.058.52.628 1.247.711 2.183.25.923-.506 1.895-1.779 2.914-3.817zm-3.453 7.538c-.449.128-.856.147-1.22.057a9.81 9.81 0 0 1-1.155-.47c-.923-.514-1.615-1.068-2.076-1.664-.462-.597-.709-1.206-.74-1.827 0-.34-.055-.616-.164-.827l-.115-.404c-.244-.173-.327-.295-.25-.366.077-.07.118-.179.125-.327.224-.064.234-.285.029-.663-.122-.256-.144-.93-.067-2.02.077-1.089.263-2.137.558-3.143.121-.423.301-.984.538-1.683.237-.699.52-1.41.847-2.134.371-.738.73-1.35 1.077-1.837.68-1.019 1.304-1.804 1.875-2.355s1.234-1.032 1.99-1.442c.744-.455 1.28-.705 1.606-.75.314-.09.824.08 1.53.51.896.083 1.602.343 2.114.779.545.378 1.003 1.048 1.375 2.01.397 1.05.66 2.31.788 3.778.16 1.41-.183 3.353-1.03 5.827-.538 1.513-1.099 2.692-1.682 3.538a24.212 24.212 0 0 1-2.154 2.654c-.622.711-1.209 1.291-1.76 1.74-.564.404-1.244.743-2.039 1.019z" fill="#fff"/>
</svg>